<?xml version="1.0" encoding="iso-8859-1"?>
<!-- Generator: Adobe Illustrator 19.0.0, SVG Export Plug-In . SVG Version: 6.00 Build 0)  -->
<svg version="1.1" id="Capa_1" xmlns="http://www.w3.org/2000/svg" xmlns:xlink="http://www.w3.org/1999/xlink" x="0px" y="0px"
	 viewBox="0 0 512.023 512.023" style="enable-background:new 0 0 512.023 512.023;" xml:space="preserve">
<g transform="translate(-1)">
	<g>
		<g>
			<path d="M505.98,146.396c-5.362-5.903-12.972-9.261-20.946-9.243H28.997c-7.979-0.017-15.592,3.345-20.955,9.253
				c-5.19,5.663-7.7,13.28-6.894,20.919l29.723,292.571c1.498,14.191,13.572,24.897,27.84,24.686H455.32
				c14.267,0.207,26.338-10.497,27.84-24.686l29.714-292.571C513.683,159.683,511.172,152.061,505.98,146.396z M412.449,365.724
				H101.592c-35.346,0-64-28.654-64-64c0-35.346,28.654-64,64-64h310.857c35.346,0,64,28.654,64,64
				C476.449,337.071,447.795,365.724,412.449,365.724z"/>
			<path d="M467.306,82.296c0-5.049-4.093-9.143-9.143-9.143h-172.8c-8.125,0.001-15.831-3.611-21.029-9.856L237.189,30.73
				c-1.737-2.099-4.325-3.308-7.049-3.291H55.877c-5.049,0-9.143,4.093-9.143,9.143v82.286h420.571V82.296z"/>
			<path d="M412.449,256.01H101.592c-25.247,0-45.714,20.467-45.714,45.714s20.467,45.714,45.714,45.714h310.857
				c25.247,0,45.714-20.467,45.714-45.714S437.696,256.01,412.449,256.01z M137.977,322.438c-0.837,3.197-3.333,5.693-6.53,6.53
				c-3.197,0.837-6.596-0.116-8.891-2.493l-11.822-11.822l-11.822,11.822c-3.587,3.465-9.29,3.415-12.817-0.111
				c-3.527-3.527-3.576-9.229-0.111-12.817l11.822-11.822l-11.822-11.822c-3.465-3.587-3.415-9.29,0.111-12.817
				c3.527-3.527,9.229-3.576,12.817-0.111l11.822,11.822l11.822-11.822c3.587-3.465,9.29-3.415,12.817,0.111
				c3.527,3.527,3.576,9.229,0.111,12.817l-11.822,11.822l11.822,11.822C137.861,315.842,138.814,319.241,137.977,322.438z
				 M211.12,322.438c-0.837,3.197-3.333,5.693-6.53,6.53c-3.197,0.837-6.596-0.116-8.892-2.493l-11.822-11.822l-11.822,11.822
				c-3.587,3.465-9.29,3.415-12.817-0.111c-3.527-3.527-3.576-9.229-0.111-12.817l11.822-11.822l-11.822-11.822
				c-3.465-3.587-3.415-9.29,0.111-12.817c3.527-3.527,9.229-3.576,12.817-0.111l11.822,11.822l11.822-11.822
				c3.588-3.465,9.29-3.415,12.817,0.111c3.527,3.527,3.576,9.229,0.111,12.817l-11.822,11.822l11.822,11.822
				C211.004,315.842,211.957,319.241,211.12,322.438z M284.263,322.438c-0.837,3.197-3.333,5.693-6.53,6.53
				c-3.197,0.837-6.596-0.116-8.891-2.493l-11.822-11.822l-11.822,11.822c-3.587,3.465-9.29,3.415-12.817-0.111
				c-3.527-3.527-3.576-9.229-0.111-12.817l11.822-11.822l-11.822-11.822c-3.465-3.587-3.415-9.29,0.111-12.817
				c3.527-3.527,9.229-3.576,12.817-0.111l11.822,11.822l11.822-11.822c3.587-3.465,9.29-3.415,12.817,0.111
				c3.527,3.527,3.576,9.229,0.111,12.817l-11.822,11.822l11.822,11.822C284.147,315.842,285.1,319.241,284.263,322.438z
				 M357.406,322.438c-0.837,3.197-3.333,5.693-6.53,6.53c-3.197,0.837-6.596-0.116-8.891-2.493l-11.822-11.822l-11.822,11.822
				c-3.587,3.465-9.29,3.415-12.817-0.111c-3.527-3.527-3.576-9.229-0.111-12.817l11.822-11.822l-11.822-11.822
				c-3.465-3.587-3.415-9.29,0.111-12.817c3.527-3.527,9.229-3.576,12.817-0.111l11.822,11.822l11.822-11.822
				c3.587-3.465,9.29-3.415,12.817,0.111c3.527,3.527,3.576,9.229,0.111,12.817l-11.822,11.822l11.822,11.822
				C357.29,315.842,358.243,319.241,357.406,322.438z M421.592,329.153H385.02c-5.049,0-9.143-4.093-9.143-9.143
				s4.093-9.143,9.143-9.143h36.571c5.049,0,9.143,4.093,9.143,9.143S426.641,329.153,421.592,329.153z"/>
		</g>
	</g>
</g>
<g>
</g>
<g>
</g>
<g>
</g>
<g>
</g>
<g>
</g>
<g>
</g>
<g>
</g>
<g>
</g>
<g>
</g>
<g>
</g>
<g>
</g>
<g>
</g>
<g>
</g>
<g>
</g>
<g>
</g>
</svg>
